<svg width="190" height="81" viewBox="0 0 190 81" fill="none" xmlns="http://www.w3.org/2000/svg">
<path d="M0.5 79.2583V22.2583H13L31 50.2583L27.75 55.2583L24.5 60.2583L13.5 43.7583V79.2583H0.5Z" fill="#185ADB"/>
<path d="M29.5 67.7583L26.5 63.2583L53 22.2583H66V45.2583C59.6 48.4583 54.6667 53.5916 53 55.7583V43.2583L37 67.7583H29.5Z" fill="#185ADB"/>
<path d="M69.5 42.7583V22.2583H81.5L88 32.0773C86.6552 30.7325 75.1063 38.6376 69.5 42.7583Z" fill="#185ADB"/>
<path d="M0.5 79.2583V22.2583H13L31 50.2583L27.75 55.2583L24.5 60.2583L13.5 43.7583V79.2583H0.5Z" stroke="#185ADB"/>
<path d="M29.5 67.7583L26.5 63.2583L53 22.2583H66V45.2583C59.6 48.4583 54.6667 53.5916 53 55.7583V43.2583L37 67.7583H29.5Z" stroke="#185ADB"/>
<path d="M69.5 42.7583V22.2583H81.5L88 32.0773C86.6552 30.7325 75.1063 38.6376 69.5 42.7583Z" stroke="#185ADB"/>
<path d="M96 67.7583L89.5 58.2583L97.5 50.2583L99.5 53.2583L108.5 39.7583L128.5 22.2583H133L103 67.7583H96Z" fill="#0A1931"/>
<path d="M132 79.2583H119.5V49.2583L132 30.2583V79.2583Z" fill="#0A1931"/>
<path d="M96 67.7583L89.5 58.2583L97.5 50.2583L99.5 53.2583L108.5 39.7583L128.5 22.2583H133L103 67.7583H96Z" stroke="#0A1931"/>
<path d="M132 79.2583H119.5V49.2583L132 30.2583V79.2583Z" stroke="#0A1931"/>
<path d="M85.8715 80.2583H40.5V79.779V79.7583L40.5446 79.6715C41.3443 77.7942 42.5276 77.7583 44 77.7583C45.1667 73.5916 47.5 64.8779 47.5 63.3564C47.5 61.8348 48.5 60.9903 49 60.7583L54.5 58.2583C54.7887 53.8992 59.5 51.925 62 50.7583L75 41.7583L89 32.7583L95 28.7583L97 27.7583H98.5L114 12.7583L120.885 6.85683C121.062 5.60006 123.103 3.65569 124 2.75828C128.5 -1.2417 134.667 0.924974 137.5 2.75831C144.667 7.65012 159.286 17.5987 160.428 18.2583C161.571 18.918 161.619 21.1998 161.5 22.2583L164.5 25.7583C168 24.7583 169.921 27.1828 171.5 28.7583L174 28.2583L179.5 28.7583C183.1 28.7583 183.667 31.7583 183.5 33.2583L184.5 42.7583L182.5 47.2583L178.5 40.2583L179.5 39.2583L178 34.7583L172 34.2583C172 35.4583 170 36.7583 169 37.2583V43.7583L173.5 45.2583L174 44.7583L180.5 49.2583L176 51.2583L165.5 48.5884C164.3 49.2813 163.333 45.9904 163 44.2583L162 36.2583C160.648 35.8959 159.897 33.4406 159.691 32.2583L156 30.3205C156.228 31.1702 153.762 31.2998 152.5 31.2583L131.5 18.7583C131 18.7583 129.404 18.925 128.5 18.7583L104.5 39.2583C104.5 40.4583 101 43.925 99.5 45.2583L79.5 64.2583L82.5 77.7583C84.5 77.7583 85.4143 79.0401 85.8715 80.2583Z" fill="#F4F4F9"/>
<path d="M120.902 7.25828C120.58 6.05828 123 3.75828 124 2.75828C128.5 -1.2417 134.667 0.924974 137.5 2.75831C144.667 7.65012 159.286 17.5987 160.428 18.2583C161.571 18.918 161.619 21.1998 161.5 22.2583L164.5 25.7583C168 24.7583 169.921 27.1828 171.5 28.7583L174 28.2583L179.5 28.7583C183.1 28.7583 183.667 31.7583 183.5 33.2583L184.5 42.7583L182.5 47.2583L178.5 40.2583L179.5 39.2583L178 34.7583L172 34.2583C172 35.4583 170 36.7583 169 37.2583V43.7583L173.5 45.2583L174 44.7583L180.5 49.2583L176 51.2583L165.5 48.5884C164.3 49.2813 163.333 45.9904 163 44.2583L162 36.2583C160.648 35.8959 159.897 33.4406 159.691 32.2583L156 30.3205C156.228 31.1702 153.762 31.2998 152.5 31.2583L131.5 18.7583C131 18.7583 129.404 18.925 128.5 18.7583L104.5 39.2583C104.5 40.4583 101 43.925 99.5 45.2583L79.5 64.2583L82.5 77.7583C84.5 77.7583 85.4143 79.0401 85.8715 80.2583H40.5V79.7583L40.7567 79.2583M121 6.75828L114 12.7583L98.5 27.7583H97L95 28.7583L89 32.7583L75 41.7583L62 50.7583C59.5 51.925 54.7887 53.8992 54.5 58.2583L49 60.7583C48.5 60.9903 47.5 61.8348 47.5 63.3564C47.5 64.8779 45.1667 73.5916 44 77.7583C42.5 77.7583 41.3 77.7956 40.5 79.779" stroke="#0A1931"/>
<path d="M113.5 13.2583C114 8.7583 118.5 4.43006 122.5 4.43005" stroke="#0A1931"/>
<path d="M111 15.7583C109.5 11.7583 114.9 2.2583 124.5 2.2583" stroke="#0A1931"/>
<circle cx="130" cy="9.7583" r="9" stroke="#0A1931"/>
<circle cx="65" cy="61.7583" r="11" fill="#F4F9F9" stroke="#0A1931"/>
<circle cx="65" cy="61.7583" r="6" fill="#F4F9F9" stroke="#0A1931"/>
<circle cx="130" cy="9.7583" r="5" stroke="#0A1931"/>
<path d="M98.4561 27.7593C101.093 28.2468 102.696 29.2404 103.655 30.5874C104.63 31.9559 105 33.7686 105 36.0005C105 38.2652 104.291 39.8122 103.16 40.8589C102.022 41.913 100.399 42.5119 98.4707 42.7573C94.8385 42.7438 91.5 40.2144 91.5 36.0005C91.5001 33.8547 92.3581 31.7825 93.6787 30.2485C94.9913 28.7239 96.7201 27.7751 98.4561 27.7593Z" stroke="#0A1931"/>
<path d="M98.5 31.7583C100.379 31.7583 102 33.4922 102 35.7583C102 38.0244 100.379 39.7583 98.5 39.7583C96.6207 39.7583 95 38.0244 95 35.7583C95 33.4922 96.6207 31.7583 98.5 31.7583Z" stroke="#0A1931"/>
<circle cx="166" cy="31.7583" r="6" stroke="#0A1931"/>
<circle cx="166" cy="31.7583" r="2" stroke="#0A1931"/>
<path d="M104 30.7583L119.5 17.2583L121 7.2583" stroke="#0A1931"/>
<path d="M160.5 29.7583L146 19.7583L146.5 15.2583L139 9.2583" stroke="#0A1931"/>
<path d="M71.5 52.2583L81 45.2583L83.5 45.7583L93 40.2583" stroke="#0A1931"/>
<path d="M75.5 57.2583L85 50.2583L84 45.7583" stroke="#0A1931"/>
<path d="M44 77.7583H82.5" stroke="#0A1931"/>
<path d="M176.5 55.2583L180.5 51.2583" stroke="#0A1931"/>
<path d="M182 56.7583V51.2583M188.5 56.2583L183.5 50.7583M184.5 47.2583L188 43.7583M184.5 49.2583H189.5M69 77.7583L67.5 72.7583" stroke="#0A1931"/>
<path d="M78.5 77.2583L75.5 66.2583L75 65.7583" stroke="#0A1931"/>
</svg>
